<?xml version="1.0" standalone="no"?>
<!DOCTYPE svg PUBLIC "-//W3C//DTD SVG 20010904//EN"
 "http://www.w3.org/TR/2001/REC-SVG-20010904/DTD/svg10.dtd">
<svg version="1.0" xmlns="http://www.w3.org/2000/svg"
 width="500.000000pt" height="500.000000pt" viewBox="0 0 500.000000 500.000000"
 preserveAspectRatio="xMidYMid meet">

<g transform="translate(0.000000,500.000000) scale(0.100000,-0.100000)"
fill="#000000" stroke="none">
<path d="M4680 3283 l0 -237 -42 41 c-77 73 -117 88 -243 88 -106 0 -112 -1
-168 -33 -53 -30 -58 -31 -52 -12 5 17 0 23 -29 35 -69 29 -167 16 -213 -27
l-23 -21 0 26 0 27 -140 0 -140 0 0 95 0 95 -100 0 -100 0 0 -95 0 -95 -35 0
c-30 0 -35 -3 -35 -24 l0 -25 -57 30 c-52 28 -65 30 -133 27 -59 -2 -82 -8
-107 -26 -33 -23 -33 -23 -33 -3 0 20 -6 21 -100 21 l-100 0 0 -65 0 -64 -44
44 c-65 64 -117 87 -210 93 -100 6 -173 -10 -234 -53 -45 -31 -49 -32 -45 -11
7 34 -53 58 -159 64 -76 4 -92 2 -140 -21 -230 -105 -236 -403 -11 -513 75
-37 192 -39 267 -6 44 20 48 24 42 48 l-7 26 38 -30 c60 -46 118 -64 208 -65
111 -1 174 22 242 87 l53 52 0 -63 0 -63 100 0 100 0 0 160 c0 128 3 165 15
184 20 30 67 50 100 42 47 -12 54 -38 57 -216 l3 -165 103 -3 102 -3 0 191 c0
106 4 190 9 190 5 0 11 -60 13 -132 3 -120 6 -138 28 -178 35 -63 95 -93 170
-86 30 3 105 9 167 12 l112 6 3 165 c3 159 4 165 27 184 24 19 104 27 127 11
7 -4 12 -36 11 -82 0 -161 87 -261 254 -290 121 -21 255 21 320 99 l29 36 0
-63 0 -62 100 0 100 0 0 445 0 445 -100 0 -100 0 0 -237z m-2478 -282 c22 -8
23 -13 22 -102 l-1 -94 -43 -14 c-40 -13 -47 -12 -79 5 -75 40 -88 130 -29
186 32 30 83 37 130 19z m383 -5 c69 -29 84 -125 29 -177 -20 -19 -37 -24 -74
-24 -37 0 -54 5 -74 24 -53 50 -38 148 26 176 42 18 51 18 93 1z m1113 -88
c-3 -98 -4 -103 -25 -106 -17 -3 -26 3 -33 23 -11 29 -14 168 -3 178 3 4 19 7
35 7 l29 0 -3 -102z m775 62 c29 -33 37 -93 17 -131 -13 -24 -61 -49 -95 -49
-34 0 -82 25 -95 49 -5 11 -10 37 -10 59 0 101 116 146 183 72z"/>
<path d="M765 3481 c-50 -22 -91 -69 -106 -121 l-12 -40 -72 0 c-57 0 -78 -4
-98 -20 -21 -17 -40 -20 -119 -20 -51 0 -110 -5 -130 -10 -50 -14 -97 -55
-119 -105 -17 -37 -19 -81 -19 -696 l0 -656 23 -44 c13 -24 43 -57 66 -74 l43
-30 633 0 633 0 44 30 c25 18 52 49 66 75 l22 44 0 651 c0 408 -4 664 -10 687
-13 45 -75 103 -127 117 -21 6 -78 11 -127 11 -66 0 -94 4 -106 15 -19 17
-133 39 -162 32 -12 -4 -19 3 -23 24 -10 45 -60 105 -107 128 -56 26 -138 28
-193 2z m157 -118 c34 -31 21 -38 -67 -38 -47 0 -85 2 -85 6 0 8 42 45 60 52
23 9 72 -1 92 -20z m-491 -233 c5 -21 21 -48 43 -67 l36 -33 341 0 c232 0 347
4 362 11 40 21 67 52 77 91 l11 38 75 0 c70 0 78 -2 105 -29 l29 -29 0 -640
c0 -632 0 -640 -21 -666 l-20 -26 -605 0 c-376 0 -612 4 -624 10 -10 5 -23 24
-29 41 -17 48 -15 1255 2 1289 19 38 54 50 137 48 l74 -3 7 -35z"/>
<path d="M600 2785 c-47 -47 -88 -85 -93 -85 -5 0 -29 17 -54 37 -43 35 -46
36 -71 22 -48 -27 -40 -51 39 -118 40 -34 80 -61 89 -61 18 0 240 219 240 238
0 16 -36 52 -53 52 -7 0 -50 -38 -97 -85z"/>
<path d="M836 2764 c-19 -18 -21 -45 -4 -62 9 -9 82 -12 265 -12 l254 0 8 23
c6 14 5 29 -4 42 -12 19 -25 20 -258 23 -213 2 -247 0 -261 -14z"/>
<path d="M1198 2533 c-18 -15 -94 -86 -168 -158 -74 -72 -168 -162 -208 -200
l-73 -69 -101 102 c-109 112 -133 127 -175 111 -55 -21 -69 -75 -31 -125 39
-53 232 -245 262 -261 56 -29 38 -43 449 353 154 149 167 165 167 197 0 26 -7
41 -26 56 -35 28 -56 26 -96 -6z"/>
<path d="M3710 2409 c0 -169 -1 -181 -17 -173 -10 4 -55 9 -100 12 -72 3 -89
1 -137 -21 -31 -14 -75 -45 -98 -70 l-43 -44 -40 41 c-57 59 -124 88 -217 94
-95 6 -165 -11 -229 -53 l-49 -34 0 40 0 39 -55 0 -55 0 0 95 0 95 -100 0
-100 0 0 -95 0 -95 -40 0 -40 0 0 -56 0 -56 -22 16 c-13 9 -66 37 -118 63
-155 74 -176 97 -129 144 18 18 30 21 79 17 34 -2 78 -14 109 -30 l52 -26 42
85 42 85 -23 18 c-77 63 -285 86 -369 42 -98 -51 -148 -119 -159 -216 -6 -48
-3 -63 20 -110 34 -69 75 -104 195 -164 52 -26 103 -59 114 -74 l21 -28 -21
-27 c-42 -58 -144 -49 -250 21 l-53 35 -50 -84 c-27 -45 -50 -87 -50 -92 0
-14 100 -71 166 -95 86 -30 227 -30 309 2 76 29 139 91 159 157 l15 48 0 -36
c1 -56 30 -126 62 -154 40 -33 102 -48 163 -40 68 9 109 31 103 56 -6 23 6 25
23 4 26 -31 122 -58 212 -58 78 0 93 3 152 32 37 18 80 49 98 70 l31 38 35
-39 c75 -83 190 -121 294 -98 29 6 104 11 166 10 l112 -1 0 93 0 93 93 -93 92
-92 130 0 130 0 -140 140 -140 140 130 130 130 130 -136 0 -136 0 -77 -81 -76
-81 0 256 0 256 -105 0 -105 0 0 -181z m190 -96 l0 -268 93 93 92 92 115 0
115 0 -125 -125 -125 -125 135 -135 135 -135 -110 0 -110 0 -100 100 c-55 55
-103 100 -107 100 -5 0 -8 -45 -8 -101 l0 -101 -107 2 c-60 0 -147 -2 -194 -6
-79 -6 -92 -4 -141 18 -32 15 -71 44 -97 74 l-44 49 -57 -57 c-73 -72 -132
-92 -259 -86 -71 3 -95 9 -139 33 -30 16 -65 43 -80 60 -17 20 -23 23 -18 10
4 -11 10 -34 13 -51 5 -28 2 -32 -27 -43 -58 -20 -152 -14 -191 12 -59 39 -73
83 -77 235 l-4 132 -34 0 -34 0 0 70 0 70 35 0 35 0 0 95 0 95 90 0 90 0 0
-94 0 -95 53 -3 52 -3 3 -48 3 -48 37 32 c80 70 213 97 324 65 64 -18 141 -74
164 -118 l16 -30 15 23 c58 87 152 139 249 139 34 0 81 -7 104 -15 23 -8 44
-15 46 -15 2 0 4 83 4 185 l0 185 85 0 85 0 0 -267z m-1579 216 c37 -10 76
-27 88 -36 l22 -18 -37 -70 c-21 -38 -38 -71 -40 -73 -1 -2 -13 3 -26 12 -40
26 -132 45 -174 36 -44 -10 -64 -32 -64 -71 0 -35 26 -54 153 -113 167 -77
226 -159 206 -284 -10 -66 -30 -103 -79 -145 -62 -53 -131 -70 -255 -65 -92 4
-110 8 -176 40 -118 57 -115 51 -64 136 24 41 45 76 48 78 3 3 25 -9 50 -26
130 -87 276 -76 277 22 0 35 -43 70 -145 117 -141 66 -200 137 -198 242 3 146
144 259 303 242 25 -2 75 -13 111 -24z m148 -491 c0 -24 -3 -36 -6 -28 -3 8
-12 27 -20 43 -13 25 -12 27 7 27 17 0 20 -6 19 -42z"/>
<path d="M3705 2109 c-11 -20 -21 -28 -33 -25 -78 23 -126 13 -167 -35 -19
-24 -25 -42 -25 -80 0 -42 5 -55 34 -87 30 -33 40 -37 83 -37 26 0 58 4 70 8
19 7 25 2 42 -30 l20 -38 1 178 c0 97 -2 177 -5 177 -2 0 -12 -14 -20 -31z
m-40 -41 c22 -10 28 -9 36 3 5 9 9 -28 9 -101 0 -63 -4 -110 -8 -103 -6 9 -18
9 -51 -3 -55 -19 -90 -11 -127 27 -24 25 -29 39 -29 80 0 44 4 54 33 80 36 32
90 39 137 17z"/>
<path d="M2660 1986 c0 -83 3 -108 16 -121 9 -9 23 -14 31 -11 8 3 16 6 19 6
2 0 1 33 -2 73 -4 51 -2 84 9 115 l15 42 -44 0 -44 0 0 -104z m55 -11 c0 -91
-2 -105 -16 -105 -24 0 -29 21 -29 121 0 86 1 89 23 89 21 0 22 -3 22 -105z"/>
<path d="M2963 2070 c-41 -25 -53 -48 -53 -105 0 -40 5 -52 34 -81 29 -29 41
-34 83 -34 55 0 86 17 108 60 57 111 -65 225 -172 160z m113 -5 c47 -19 71
-73 55 -125 -14 -48 -40 -70 -89 -77 -117 -16 -170 136 -70 197 39 24 57 25
104 5z"/>
</g>
</svg>
