<?xml version="1.0" standalone="no"?>
<!DOCTYPE svg PUBLIC "-//W3C//DTD SVG 20010904//EN"
 "http://www.w3.org/TR/2001/REC-SVG-20010904/DTD/svg10.dtd">
<svg version="1.0" xmlns="http://www.w3.org/2000/svg"
 width="500.000000pt" height="500.000000pt" viewBox="0 0 500.000000 500.000000"
 preserveAspectRatio="xMidYMid meet">

<g transform="translate(0.000000,500.000000) scale(0.100000,-0.100000)"
fill="#000000" stroke="none">
<path d="M2475 4851 c-149 -24 -265 -99 -354 -226 -40 -57 -81 -153 -81 -188
0 -44 -14 -47 -193 -47 -162 0 -171 -1 -221 -26 -28 -14 -65 -39 -81 -55 l-31
-29 -229 0 c-330 0 -424 -24 -547 -139 -62 -57 -109 -135 -136 -221 -14 -43
-18 -3455 -5 -3473 5 -7 15 -30 22 -51 18 -52 71 -133 113 -172 41 -40 142
-104 162 -104 8 0 17 -4 20 -9 3 -5 23 -12 43 -17 61 -12 3171 -10 3221 3 86
21 167 71 234 141 69 74 98 125 122 219 14 54 16 247 16 1736 l0 1675 -24 72
c-48 142 -151 252 -281 301 -82 31 -165 39 -388 39 l-227 0 -30 28 c-16 16
-53 41 -82 57 -51 28 -58 29 -225 33 -151 4 -173 7 -173 21 0 33 -52 157 -87
208 -68 99 -158 166 -273 204 -67 22 -210 32 -285 20z m170 -301 c3 -5 15 -10
26 -10 27 0 119 -91 119 -118 0 -22 -2 -22 -182 -22 -101 0 -200 -3 -220 -6
-31 -5 -38 -4 -38 10 0 44 70 117 133 139 49 17 153 21 162 7z m-1195 -586 c0
-115 88 -248 199 -302 l56 -27 871 0 c676 0 877 3 897 13 15 6 39 18 53 24 90
43 184 192 184 291 l0 27 198 0 c185 -1 200 -2 242 -23 29 -15 57 -41 78 -71
l32 -48 0 -1663 c0 -1829 5 -1687 -62 -1752 -68 -66 21 -63 -1625 -63 -1151 0
-1503 3 -1539 12 -56 15 -119 68 -139 115 -13 30 -15 259 -15 1687 0 1819 -5
1678 62 1743 56 55 91 62 311 62 l197 1 0 -26z"/>
<path d="M2120 3203 c-16 -3 -104 -83 -242 -222 l-217 -217 -48 38 c-207 165
-205 164 -276 134 -45 -18 -67 -56 -67 -113 0 -47 2 -50 77 -122 43 -41 101
-91 128 -112 28 -22 73 -57 100 -78 57 -45 102 -59 136 -41 26 14 545 534 560
561 5 10 9 37 9 61 0 36 -6 50 -30 75 -25 26 -75 47 -99 42 -3 -1 -17 -4 -31
-6z"/>
<path d="M2528 2957 c-49 -41 -62 -101 -34 -156 33 -64 2 -61 693 -61 580 0
630 2 649 18 26 21 54 73 54 102 0 30 -25 75 -56 99 -26 21 -33 21 -653 21
l-626 0 -27 -23z"/>
<path d="M3535 2398 c-44 -16 -55 -25 -193 -159 -70 -68 -251 -243 -402 -389
-151 -146 -331 -320 -400 -386 -183 -177 -234 -223 -246 -224 -7 0 -70 60
-140 132 -348 359 -369 379 -418 403 -143 71 -296 -18 -296 -172 0 -93 25
-125 370 -475 341 -345 369 -368 458 -368 95 0 101 4 737 620 213 206 464 447
557 536 94 88 181 178 194 200 44 72 27 182 -38 241 -50 46 -122 62 -183 41z"/>
</g>
</svg>
